<?xml version="1.0" encoding="UTF-8"?>
<!DOCTYPE svg PUBLIC "-//W3C//DTD SVG 1.1//EN" "http://www.w3.org/Graphics/SVG/1.1/DTD/svg11.dtd">
<svg xmlns="http://www.w3.org/2000/svg" version="1.1" width="119px" height="110px" style="shape-rendering:geometricPrecision; text-rendering:geometricPrecision; image-rendering:optimizeQuality; fill-rule:evenodd; clip-rule:evenodd" xmlns:xlink="http://www.w3.org/1999/xlink">
<g><path style="opacity:1" fill="#683300" d="M -0.5,-0.5 C 39.1667,-0.5 78.8333,-0.5 118.5,-0.5C 118.5,36.1667 118.5,72.8333 118.5,109.5C 78.8333,109.5 39.1667,109.5 -0.5,109.5C -0.5,72.8333 -0.5,36.1667 -0.5,-0.5 Z"/></g>
<g><path style="opacity:1" fill="#f26c14" d="M 39.5,5.5 C 46.175,5.33375 52.8417,5.50042 59.5,6C 69.7216,8.11148 80.0549,9.44481 90.5,10C 102.668,15.523 109.501,25.023 111,38.5C 111.667,45.1667 111.667,51.8333 111,58.5C 108.169,67.8307 104.502,76.8307 100,85.5C 99.3784,89.6121 98.3784,93.6121 97,97.5C 92.8003,100.66 89.467,99.9937 87,95.5C 86.3333,91.8333 86.3333,88.1667 87,84.5C 90.0541,81.4459 93.0541,78.4459 96,75.5C 96.7233,61.809 96.39,48.1423 95,34.5C 94.8666,31.5862 93.6999,29.2529 91.5,27.5C 90.6676,38.1511 90.1676,48.8178 90,59.5C 88.6667,60.8333 87.3333,60.8333 86,59.5C 85.7137,48.4797 85.2137,37.4797 84.5,26.5C 82.8762,26.3601 81.7096,27.0267 81,28.5C 80.484,39.1697 79.984,49.8364 79.5,60.5C 78.1667,60.5 76.8333,60.5 75.5,60.5C 75.6665,49.8281 75.4998,39.1615 75,28.5C 73.6054,27.1854 72.6054,27.5188 72,29.5C 71.0124,32.4245 70.3457,35.4245 70,38.5C 69.3333,51.1667 69.3333,63.8333 70,76.5C 73.6667,78.8333 76.6667,81.8333 79,85.5C 79.9032,91.2806 79.5699,96.9473 78,102.5C 76.4993,104.584 74.4993,105.917 72,106.5C 64.7145,105.111 57.5478,103.277 50.5,101C 46.7344,95.4156 45.5677,89.2489 47,82.5C 57.8467,74.1773 61.8467,63.1773 59,49.5C 57.746,41.7191 54.5794,34.8858 49.5,29C 42.621,25.0056 37.121,26.5056 33,33.5C 28.5932,40.5532 26.7599,48.2198 27.5,56.5C 26.1872,67.5337 30.0205,76.2004 39,82.5C 40.3502,97.8495 34.5168,101.683 21.5,94C 17.2922,89.3635 15.1256,83.8635 15,77.5C 14.8569,69.7714 14.1903,62.1047 13,54.5C 8.82731,30.8299 17.6606,14.4966 39.5,5.5 Z"/></g>
<g><path style="opacity:1" fill="#ee6a14" d="M 3.5,43.5 C 5.16667,43.5 6.83333,43.5 8.5,43.5C 8.66409,46.1873 8.49742,48.854 8,51.5C 6.33333,52.8333 4.66667,52.8333 3,51.5C 2.27817,48.7395 2.44484,46.0728 3.5,43.5 Z"/></g>
<g><path style="opacity:1" fill="#ec6913" d="M 4.5,55.5 C 7.85953,54.7904 9.69287,56.1238 10,59.5C 10.6667,63.8333 10.6667,68.1667 10,72.5C 9.58605,72.9574 9.08605,73.2907 8.5,73.5C 5.92273,69.1081 3.92273,64.4414 2.5,59.5C 2.75166,57.9271 3.41833,56.5938 4.5,55.5 Z"/></g>
<g><path style="opacity:1" fill="#ef6a14" d="M 110.5,75.5 C 111.496,75.4142 112.329,75.7476 113,76.5C 113.667,79.5 113.667,82.5 113,85.5C 111.456,88.6886 108.956,89.8553 105.5,89C 104.424,87.2739 104.257,85.4406 105,83.5C 106.273,80.4027 108.107,77.7361 110.5,75.5 Z"/></g>
</svg>
