<?xml version="1.0" encoding="UTF-8"?>
<!DOCTYPE svg PUBLIC "-//W3C//DTD SVG 1.1//EN" "http://www.w3.org/Graphics/SVG/1.1/DTD/svg11.dtd">
<svg xmlns="http://www.w3.org/2000/svg" version="1.1" width="116px" height="105px" style="shape-rendering:geometricPrecision; text-rendering:geometricPrecision; image-rendering:optimizeQuality; fill-rule:evenodd; clip-rule:evenodd" xmlns:xlink="http://www.w3.org/1999/xlink">
<g><path style="opacity:1" fill="#fffcfa" d="M -0.5,-0.5 C 38.1667,-0.5 76.8333,-0.5 115.5,-0.5C 115.5,34.5 115.5,69.5 115.5,104.5C 76.8333,104.5 38.1667,104.5 -0.5,104.5C -0.5,69.5 -0.5,34.5 -0.5,-0.5 Z"/></g>
<g><path style="opacity:1" fill="#f56f19" d="M 40.5,2.5 C 46.1764,2.33391 51.8431,2.50058 57.5,3C 68.0802,4.99146 78.7469,6.32479 89.5,7C 97.0524,9.02189 102.552,13.5219 106,20.5C 114.482,40.9396 112.815,60.6063 101,79.5C 99.7458,83.7703 98.7458,88.1036 98,92.5C 94.1966,97.7413 90.5299,97.7413 87,92.5C 86.3333,88.8333 86.3333,85.1667 87,81.5C 90.0541,78.4459 93.0541,75.4459 96,72.5C 96.7233,58.809 96.39,45.1423 95,31.5C 94.8666,28.5862 93.6999,26.2529 91.5,24.5C 90.6676,35.1511 90.1676,45.8178 90,56.5C 88.6667,57.8333 87.3333,57.8333 86,56.5C 85.7137,45.4797 85.2137,34.4797 84.5,23.5C 82.8762,23.3601 81.7096,24.0267 81,25.5C 80.7092,36.1869 80.2092,46.8536 79.5,57.5C 78.1667,57.5 76.8333,57.5 75.5,57.5C 75.6665,46.8281 75.4998,36.1615 75,25.5C 74.1072,24.2888 73.2739,24.2888 72.5,25.5C 71.134,28.6925 70.3007,32.0258 70,35.5C 69.6801,45.3439 69.1801,55.1772 68.5,65C 68.5229,67.9254 69.0229,70.7587 70,73.5C 73.6667,75.8333 76.6667,78.8333 79,82.5C 79.8508,88.2531 79.5174,93.9198 78,99.5C 76.4913,101.881 74.3247,102.881 71.5,102.5C 64.2668,101.875 57.2668,100.375 50.5,98C 44.0251,88.4143 45.1918,80.2476 54,73.5C 60.9813,60.4313 61.3146,47.098 55,33.5C 51.17,24.5797 45.0034,22.0797 36.5,26C 25.4145,40.9306 23.9145,56.7639 32,73.5C 40.6459,78.9395 41.8125,85.7728 35.5,94C 31.6656,96.0375 27.999,95.7041 24.5,93C 18.0606,88.6235 14.8939,82.4568 15,74.5C 14.8569,66.7714 14.1903,59.1047 13,51.5C 8.76179,27.2835 17.9285,10.9501 40.5,2.5 Z"/></g>
<g><path style="opacity:1" fill="#f57322" d="M 3.5,40.5 C 5.16667,40.5 6.83333,40.5 8.5,40.5C 8.66409,43.1873 8.49742,45.854 8,48.5C 6.33333,49.8333 4.66667,49.8333 3,48.5C 2.27817,45.7395 2.44484,43.0728 3.5,40.5 Z"/></g>
<g><path style="opacity:1" fill="#f67423" d="M 5.5,52.5 C 8.04954,52.5608 9.54954,53.8941 10,56.5C 10.6667,60.5 10.6667,64.5 10,68.5C 9.69238,69.3081 9.19238,69.9747 8.5,70.5C 5.92273,66.1081 3.92273,61.4414 2.5,56.5C 2.7867,54.5567 3.7867,53.2233 5.5,52.5 Z"/></g>
<g><path style="opacity:1" fill="#f5721f" d="M 110.5,72.5 C 111.496,72.4142 112.329,72.7476 113,73.5C 113.667,76.5 113.667,79.5 113,82.5C 111.456,85.6886 108.956,86.8553 105.5,86C 104.424,84.2739 104.257,82.4406 105,80.5C 106.273,77.4027 108.107,74.7361 110.5,72.5 Z"/></g>
</svg>
