<?xml version="1.0" encoding="UTF-8"?>
<!DOCTYPE svg PUBLIC "-//W3C//DTD SVG 1.1//EN" "http://www.w3.org/Graphics/SVG/1.1/DTD/svg11.dtd">
<svg xmlns="http://www.w3.org/2000/svg" version="1.1" width="156px" height="125px" style="shape-rendering:geometricPrecision; text-rendering:geometricPrecision; image-rendering:optimizeQuality; fill-rule:evenodd; clip-rule:evenodd" xmlns:xlink="http://www.w3.org/1999/xlink">
<g><path style="opacity:1" fill="#fffdfc" d="M -0.5,-0.5 C 51.5,-0.5 103.5,-0.5 155.5,-0.5C 155.5,41.1667 155.5,82.8333 155.5,124.5C 103.5,124.5 51.5,124.5 -0.5,124.5C -0.5,82.8333 -0.5,41.1667 -0.5,-0.5 Z"/></g>
<g><path style="opacity:1" fill="#f56f19" d="M 58.5,11.5 C 64.5092,11.3338 70.5092,11.5005 76.5,12C 86.3854,14.1222 96.3854,15.4555 106.5,16C 119.249,21.1059 126.415,30.6059 128,44.5C 128.667,50.1667 128.667,55.8333 128,61.5C 123.946,74.6043 119.613,87.6043 115,100.5C 111.674,106.642 108.007,106.975 104,101.5C 103.333,97.8333 103.333,94.1667 104,90.5C 107.027,87.473 110.027,84.473 113,81.5C 113.94,66.0882 113.273,50.7549 111,35.5C 110.311,34.6433 109.478,33.9767 108.5,33.5C 107.668,44.1511 107.168,54.8178 107,65.5C 105.817,66.731 104.651,66.731 103.5,65.5C 102.735,54.5268 102.068,43.5268 101.5,32.5C 100.178,32.33 99.0113,32.6634 98,33.5C 97.6498,44.1875 96.9832,54.8542 96,65.5C 95,66.8333 94,66.8333 93,65.5C 92.5002,54.8385 92.3335,44.1719 92.5,33.5C 91.1779,33.33 90.0113,33.6634 89,34.5C 86.9527,47.4026 85.786,60.4026 85.5,73.5C 85.5069,76.5917 86.0069,79.5917 87,82.5C 90.6667,84.8333 93.6667,87.8333 96,91.5C 97.1268,97.7547 96.4601,103.755 94,109.5C 92.5267,111.007 90.6934,111.674 88.5,111.5C 81.2668,110.875 74.2668,109.375 67.5,107C 63.831,101.341 62.6643,95.1743 64,88.5C 72.8316,82.2164 76.9982,73.5497 76.5,62.5C 76.5161,53.384 74.0161,45.0507 69,37.5C 63,30.8333 57,30.8333 51,37.5C 41.5628,52.7032 41.2295,68.0365 50,83.5C 57.7534,88.9239 58.5867,95.4239 52.5,103C 42.2615,104.118 35.7615,99.6182 33,89.5C 31.1704,72.8701 30.1704,56.2035 30,39.5C 34.1273,24.538 43.6273,15.2047 58.5,11.5 Z"/></g>
<g><path style="opacity:1" fill="#f57423" d="M 20.5,49.5 C 22.1667,49.5 23.8333,49.5 25.5,49.5C 25.6633,51.8568 25.4966,54.1902 25,56.5C 23.6883,58.6576 22.0217,58.9909 20,57.5C 19.2782,54.7395 19.4448,52.0728 20.5,49.5 Z"/></g>
<g><path style="opacity:1" fill="#f57422" d="M 21.5,61.5 C 24.8595,60.7904 26.6929,62.1238 27,65.5C 27.6667,69.5 27.6667,73.5 27,77.5C 26.586,77.9574 26.086,78.2907 25.5,78.5C 23.1351,74.4378 21.1351,70.1044 19.5,65.5C 19.7517,63.9271 20.4183,62.5938 21.5,61.5 Z"/></g>
<g><path style="opacity:1" fill="#f67423" d="M 126.5,81.5 C 127.822,81.33 128.989,81.6634 130,82.5C 130.667,85.5 130.667,88.5 130,91.5C 128.176,95.0321 125.509,96.0321 122,94.5C 121.833,93.6667 121.667,92.8333 121.5,92C 122.522,88.1251 124.189,84.6251 126.5,81.5 Z"/></g>
</svg>
